solid OBJECT
	facet normal 0.391655 0.78331 -0.482733
		outer loop
			vertex 81.8259 122.45 -59.45
			vertex 0 200 0
			vertex 200 100 0
		endloop
	endfacet
	facet normal 0.280791 0.937837 -0.204007
		outer loop
			vertex 81.8259 122.45 -59.45
			vertex 200 100 0
			vertex 61.8034 100 -190.211
		endloop
	endfacet
	facet normal 0.580135 0.78331 -0.223313
		outer loop
			vertex 81.8259 122.45 -59.45
			vertex 61.8034 100 -190.211
			vertex 0 200 0
		endloop
	endfacet
	facet normal -0.580135 -0.78331 0.223313
		outer loop
			vertex -81.8259 -122.45 59.45
			vertex 0 -200 0
			vertex -61.8034 -100 190.211
		endloop
	endfacet
	facet normal -0.280791 -0.937837 0.204007
		outer loop
			vertex -81.8259 -122.45 59.45
			vertex -61.8034 -100 190.211
			vertex -200 -100 -2.44929e-14
		endloop
	endfacet
	facet normal -0.391655 -0.78331 0.482733
		outer loop
			vertex -81.8259 -122.45 59.45
			vertex -200 -100 -2.44929e-14
			vertex 0 -200 0
		endloop
	endfacet
	facet normal -0.338078 0.78331 -0.521659
		outer loop
			vertex -31.2547 122.45 -96.1921
			vertex 0 200 0
			vertex 61.8034 100 -190.211
		endloop
	endfacet
	facet normal -0.107253 0.937837 -0.33009
		outer loop
			vertex -31.2547 122.45 -96.1921
			vertex 61.8034 100 -190.211
			vertex -161.803 100 -117.557
		endloop
	endfacet
	facet normal -0.0331122 0.78331 -0.620748
		outer loop
			vertex -31.2547 122.45 -96.1921
			vertex -161.803 100 -117.557
			vertex 0 200 0
		endloop
	endfacet
	facet normal 0.0331122 -0.78331 0.620748
		outer loop
			vertex 31.2547 -122.45 96.1921
			vertex 0 -200 0
			vertex 161.803 -100 117.557
		endloop
	endfacet
	facet normal 0.107253 -0.937837 0.33009
		outer loop
			vertex 31.2547 -122.45 96.1921
			vertex 161.803 -100 117.557
			vertex -61.8034 -100 190.211
		endloop
	endfacet
	facet normal 0.338078 -0.78331 0.521659
		outer loop
			vertex 31.2547 -122.45 96.1921
			vertex -61.8034 -100 190.211
			vertex 0 -200 0
		endloop
	endfacet
	facet normal -0.600599 0.78331 0.16033
		outer loop
			vertex -101.142 122.45 0
			vertex 0 200 0
			vertex -161.803 100 -117.557
		endloop
	endfacet
	facet normal -0.347077 0.937837 0
		outer loop
			vertex -101.142 122.45 0
			vertex -161.803 100 -117.557
			vertex -161.803 100 117.557
		endloop
	endfacet
	facet normal -0.600599 0.78331 -0.16033
		outer loop
			vertex -101.142 122.45 0
			vertex -161.803 100 117.557
			vertex 0 200 0
		endloop
	endfacet
	facet normal 0.600599 -0.78331 0.16033
		outer loop
			vertex 101.142 -122.45 0
			vertex 0 -200 0
			vertex 161.803 -100 -117.557
		endloop
	endfacet
	facet normal 0.347077 -0.937837 0
		outer loop
			vertex 101.142 -122.45 0
			vertex 161.803 -100 -117.557
			vertex 161.803 -100 117.557
		endloop
	endfacet
	facet normal 0.600599 -0.78331 -0.16033
		outer loop
			vertex 101.142 -122.45 0
			vertex 161.803 -100 117.557
			vertex 0 -200 0
		endloop
	endfacet
	facet normal -0.0331122 0.78331 0.620748
		outer loop
			vertex -31.2547 122.45 96.1921
			vertex 0 200 0
			vertex -161.803 100 117.557
		endloop
	endfacet
	facet normal -0.107253 0.937837 0.33009
		outer loop
			vertex -31.2547 122.45 96.1921
			vertex -161.803 100 117.557
			vertex 61.8034 100 190.211
		endloop
	endfacet
	facet normal -0.338078 0.78331 0.521659
		outer loop
			vertex -31.2547 122.45 96.1921
			vertex 61.8034 100 190.211
			vertex 0 200 0
		endloop
	endfacet
	facet normal 0.338078 -0.78331 -0.521659
		outer loop
			vertex 31.2547 -122.45 -96.1921
			vertex 0 -200 0
			vertex -61.8034 -100 -190.211
		endloop
	endfacet
	facet normal 0.107253 -0.937837 -0.33009
		outer loop
			vertex 31.2547 -122.45 -96.1921
			vertex -61.8034 -100 -190.211
			vertex 161.803 -100 -117.557
		endloop
	endfacet
	facet normal 0.0331122 -0.78331 -0.620748
		outer loop
			vertex 31.2547 -122.45 -96.1921
			vertex 161.803 -100 -117.557
			vertex 0 -200 0
		endloop
	endfacet
	facet normal 0.580135 0.78331 0.223313
		outer loop
			vertex 81.8259 122.45 59.45
			vertex 0 200 0
			vertex 61.8034 100 190.211
		endloop
	endfacet
	facet normal 0.280791 0.937837 0.204007
		outer loop
			vertex 81.8259 122.45 59.45
			vertex 61.8034 100 190.211
			vertex 200 100 0
		endloop
	endfacet
	facet normal 0.391655 0.78331 0.482733
		outer loop
			vertex 81.8259 122.45 59.45
			vertex 200 100 0
			vertex 0 200 0
		endloop
	endfacet
	facet normal -0.391655 -0.78331 -0.482733
		outer loop
			vertex -81.8259 -122.45 -59.45
			vertex 0 -200 0
			vertex -200 -100 -2.44929e-14
		endloop
	endfacet
	facet normal -0.280791 -0.937837 -0.204007
		outer loop
			vertex -81.8259 -122.45 -59.45
			vertex -200 -100 -2.44929e-14
			vertex -61.8034 -100 -190.211
		endloop
	endfacet
	facet normal -0.580135 -0.78331 -0.223313
		outer loop
			vertex -81.8259 -122.45 -59.45
			vertex -61.8034 -100 -190.211
			vertex 0 -200 0
		endloop
	endfacet
	facet normal 0.808997 -0.00696643 -0.587771
		outer loop
			vertex 130.512 30.8096 -94.8223
			vertex 61.8034 100 -190.211
			vertex 200 100 0
		endloop
	endfacet
	facet normal 0.665763 0.279502 -0.691837
		outer loop
			vertex 130.512 30.8096 -94.8223
			vertex 200 100 0
			vertex 161.803 -100 -117.557
		endloop
	endfacet
	facet normal 0.863708 0.279502 -0.419389
		outer loop
			vertex 130.512 30.8096 -94.8223
			vertex 161.803 -100 -117.557
			vertex 61.8034 100 -190.211
		endloop
	endfacet
	facet normal -0.309009 -0.00696642 -0.951033
		outer loop
			vertex -49.851 30.8096 -153.426
			vertex -161.803 100 -117.557
			vertex 61.8034 100 -190.211
		endloop
	endfacet
	facet normal -0.452244 0.279502 -0.846968
		outer loop
			vertex -49.851 30.8096 -153.426
			vertex 61.8034 100 -190.211
			vertex -61.8034 -100 -190.211
		endloop
	endfacet
	facet normal -0.131962 0.279502 -0.951033
		outer loop
			vertex -49.851 30.8096 -153.426
			vertex -61.8034 -100 -190.211
			vertex -161.803 100 -117.557
		endloop
	endfacet
	facet normal -0.999976 -0.00696648 0
		outer loop
			vertex -161.321 30.8096 -8.16431e-15
			vertex -161.803 100 117.557
			vertex -161.803 100 -117.557
		endloop
	endfacet
	facet normal -0.945265 0.279502 0.168382
		outer loop
			vertex -161.321 30.8096 -8.16431e-15
			vertex -161.803 100 -117.557
			vertex -200 -100 -2.44929e-14
		endloop
	endfacet
	facet normal -0.945265 0.279502 -0.168382
		outer loop
			vertex -161.321 30.8096 -8.16431e-15
			vertex -200 -100 -2.44929e-14
			vertex -161.803 100 117.557
		endloop
	endfacet
	facet normal -0.309009 -0.00696642 0.951033
		outer loop
			vertex -49.851 30.8096 153.426
			vertex 61.8034 100 190.211
			vertex -161.803 100 117.557
		endloop
	endfacet
	facet normal -0.131962 0.279502 0.951033
		outer loop
			vertex -49.851 30.8096 153.426
			vertex -161.803 100 117.557
			vertex -61.8034 -100 190.211
		endloop
	endfacet
	facet normal -0.452244 0.279502 0.846968
		outer loop
			vertex -49.851 30.8096 153.426
			vertex -61.8034 -100 190.211
			vertex 61.8034 100 190.211
		endloop
	endfacet
	facet normal 0.808997 -0.00696643 0.587771
		outer loop
			vertex 130.512 30.8096 94.8223
			vertex 200 100 0
			vertex 61.8034 100 190.211
		endloop
	endfacet
	facet normal 0.863708 0.279502 0.419389
		outer loop
			vertex 130.512 30.8096 94.8223
			vertex 61.8034 100 190.211
			vertex 161.803 -100 117.557
		endloop
	endfacet
	facet normal 0.665763 0.279502 0.691837
		outer loop
			vertex 130.512 30.8096 94.8223
			vertex 161.803 -100 117.557
			vertex 200 100 0
		endloop
	endfacet
	facet normal -0.808997 0.00696643 0.587771
		outer loop
			vertex -130.512 -30.8096 94.8223
			vertex -200 -100 -2.44929e-14
			vertex -61.8034 -100 190.211
		endloop
	endfacet
	facet normal -0.863708 -0.279502 0.419389
		outer loop
			vertex -130.512 -30.8096 94.8223
			vertex -61.8034 -100 190.211
			vertex -161.803 100 117.557
		endloop
	endfacet
	facet normal -0.665763 -0.279502 0.691837
		outer loop
			vertex -130.512 -30.8096 94.8223
			vertex -161.803 100 117.557
			vertex -200 -100 -2.44929e-14
		endloop
	endfacet
	facet normal 0.309009 0.00696642 0.951033
		outer loop
			vertex 49.851 -30.8096 153.426
			vertex -61.8034 -100 190.211
			vertex 161.803 -100 117.557
		endloop
	endfacet
	facet normal 0.131962 -0.279502 0.951033
		outer loop
			vertex 49.851 -30.8096 153.426
			vertex 161.803 -100 117.557
			vertex 61.8034 100 190.211
		endloop
	endfacet
	facet normal 0.452244 -0.279502 0.846968
		outer loop
			vertex 49.851 -30.8096 153.426
			vertex 61.8034 100 190.211
			vertex -61.8034 -100 190.211
		endloop
	endfacet
	facet normal 0.999976 0.00696648 0
		outer loop
			vertex 161.321 -30.8096 0
			vertex 161.803 -100 117.557
			vertex 161.803 -100 -117.557
		endloop
	endfacet
	facet normal 0.945265 -0.279502 0.168382
		outer loop
			vertex 161.321 -30.8096 0
			vertex 161.803 -100 -117.557
			vertex 200 100 0
		endloop
	endfacet
	facet normal 0.945265 -0.279502 -0.168382
		outer loop
			vertex 161.321 -30.8096 0
			vertex 200 100 0
			vertex 161.803 -100 117.557
		endloop
	endfacet
	facet normal 0.309009 0.00696642 -0.951033
		outer loop
			vertex 49.851 -30.8096 -153.426
			vertex 161.803 -100 -117.557
			vertex -61.8034 -100 -190.211
		endloop
	endfacet
	facet normal 0.452244 -0.279502 -0.846968
		outer loop
			vertex 49.851 -30.8096 -153.426
			vertex -61.8034 -100 -190.211
			vertex 61.8034 100 -190.211
		endloop
	endfacet
	facet normal 0.131962 -0.279502 -0.951033
		outer loop
			vertex 49.851 -30.8096 -153.426
			vertex 61.8034 100 -190.211
			vertex 161.803 -100 -117.557
		endloop
	endfacet
	facet normal -0.808997 0.00696643 -0.587771
		outer loop
			vertex -130.512 -30.8096 -94.8223
			vertex -61.8034 -100 -190.211
			vertex -200 -100 -2.44929e-14
		endloop
	endfacet
	facet normal -0.665763 -0.279502 -0.691837
		outer loop
			vertex -130.512 -30.8096 -94.8223
			vertex -200 -100 -2.44929e-14
			vertex -161.803 100 -117.557
		endloop
	endfacet
	facet normal -0.863708 -0.279502 -0.419389
		outer loop
			vertex -130.512 -30.8096 -94.8223
			vertex -161.803 100 -117.557
			vertex -61.8034 -100 -190.211
		endloop
	endfacet
endsolid OBJECT
